<mxfile host="1312274c-3fe4-4544-ad43-9dfc742efdcf" modified="2020-10-04T21:33:43.690Z" agent="5.0 (Windows NT 10.0; Win64; x64) AppleWebKit/537.36 (KHTML, like Gecko) Code/1.49.2 Chrome/83.0.4103.122 Electron/9.2.1 Safari/537.36" etag="tLeKXUGjRjJmfxNbGowB" version="13.1.3">
    <diagram id="6hGFLwfOUW9BJ-s0fimq" name="Page-1">
        <mxGraphModel dx="1140" dy="792" grid="1" gridSize="10" guides="1" tooltips="1" connect="1" arrows="1" fold="1" page="1" pageScale="1" pageWidth="827" pageHeight="1169" math="0" shadow="0">
            <root>
                <mxCell id="0"/>
                <mxCell id="1" parent="0"/>
                <mxCell id="2" value="Products" style="swimlane;fillColor=#008a00;strokeColor=#005700;fontColor=#ffffff;labelBackgroundColor=none;labelBorderColor=none;gradientColor=none;swimlaneFillColor=none;" vertex="1" parent="1">
                    <mxGeometry x="510" y="50" width="200" height="200" as="geometry"/>
                </mxCell>
                <mxCell id="4" value="Users" style="swimlane;rounded=0;shadow=0;fillColor=#0050ef;strokeColor=#001DBC;fontColor=#ffffff;" vertex="1" parent="1">
                    <mxGeometry x="20" y="50" width="200" height="200" as="geometry"/>
                </mxCell>
                <mxCell id="5" value="Category" style="swimlane;fillColor=#e3c800;strokeColor=#B09500;fontColor=#ffffff;gradientColor=none;" vertex="1" parent="1">
                    <mxGeometry x="130" y="330" width="200" height="200" as="geometry"/>
                </mxCell>
                <mxCell id="8" value="Sales" style="swimlane;rounded=0;shadow=0;labelBackgroundColor=none;html=0;fillColor=#fa6800;strokeColor=#C73500;fontColor=#ffffff;" vertex="1" parent="1">
                    <mxGeometry x="390" y="330" width="200" height="200" as="geometry"/>
                </mxCell>
            </root>
        </mxGraphModel>
    </diagram>
</mxfile>